<?xml version="1.0" encoding="utf-8"?>
<!-- Generator: Adobe Illustrator 22.1.0, SVG Export Plug-In . SVG Version: 6.00 Build 0)  -->
<svg version="1.1" id="Calque_1" xmlns="http://www.w3.org/2000/svg" xmlns:xlink="http://www.w3.org/1999/xlink" x="0px" y="0px"
	 viewBox="0 0 189.4 176.7" style="enable-background:new 0 0 189.4 176.7;" xml:space="preserve">
<style type="text/css">
	.st0{fill:#2F7570;}
	.st1{fill:#3B4C43;}
	.st2{fill:#C59D58;}
	.st3{fill:#297470;}
	.st4{fill:#E4D6A1;}
	.st5{fill:none;stroke:#2F7570;stroke-width:11.1;stroke-linecap:round;stroke-linejoin:round;}
	.st6{fill:none;stroke:#3B4C43;stroke-width:11.54;stroke-linecap:round;stroke-linejoin:round;}
	.st7{fill:#3B4C43;stroke:#3B4C43;stroke-linecap:round;stroke-linejoin:round;}
	.st8{fill:none;stroke:#3B4C43;stroke-width:5;stroke-linecap:round;stroke-linejoin:round;}
	.st9{fill:none;stroke:#2F7570;stroke-width:1.31;stroke-miterlimit:10;}
</style>
<title>logoPlan de travail 1</title>
<polygon class="st0" points="130.6,139.1 129.3,135.6 131.5,113.6 159.7,113.2 159.7,76.7 116.8,121.8 116.8,88.2 181.7,15.5 
	185.5,17.5 185.6,136.5 175.5,137.9 "/>
<rect x="71.1" y="28.1" transform="matrix(0.9536 -0.3012 0.3012 0.9536 -17.9035 27.7059)" class="st1" width="19.6" height="87.7"/>
<polygon class="st2" points="61.1,9.1 58.3,33 77,27.1 "/>
<polygon class="st3" points="61.1,9.1 60.5,14.4 64.5,13.1 "/>
<path class="st1" d="M99.5,19.8l15.3,2.2l-0.9,6.3l-1,6.6l-9.1,61.9l-15.2-2.2l9-61.4l1.1-7.5L99.5,19.8z"/>
<rect x="106.1" y="14.1" transform="matrix(0.1449 -0.9895 0.9895 0.1449 69.9415 124.574)" class="st0" width="1.9" height="15.4"/>
<polygon class="st4" points="109.9,2.1 99.5,19.8 114.8,22 "/>
<polygon class="st1" points="109.9,2.1 107.7,6 111,6.4 "/>
<line class="st5" x1="68.4" y1="153.2" x2="6.9" y2="81.1"/>
<line class="st6" x1="113.2" y1="169.1" x2="6.9" y2="44.4"/>
<path class="st1" d="M173.9,54.8h3.1c1,0,1.8,0.8,1.8,1.8c0,1-0.8,1.8-1.8,1.8h-3.1c-1,0-1.8-0.8-1.8-1.8
	C172.2,55.6,173,54.8,173.9,54.8L173.9,54.8z"/>
<path class="st1" d="M173.9,70.5h3.1c1-0.1,1.8,0.7,1.9,1.6c0.1,1-0.7,1.8-1.6,1.9c-0.1,0-0.2,0-0.3,0h-3.1c-1-0.1-1.7-0.9-1.6-1.9
	C172.4,71.3,173.1,70.6,173.9,70.5L173.9,70.5z"/>
<path class="st1" d="M173.9,88.1h3.1c1,0,1.8,0.8,1.8,1.8c0,1-0.8,1.8-1.8,1.8c0,0,0,0,0,0h-3.1c-1,0-1.8-0.8-1.8-1.8
	C172.2,88.9,173,88.1,173.9,88.1L173.9,88.1z"/>
<path class="st1" d="M173.9,105.6h3.1c1-0.1,1.8,0.7,1.9,1.6c0.1,1-0.7,1.8-1.6,1.9c-0.1,0-0.2,0-0.3,0h-3.1c-1-0.1-1.7-0.9-1.6-1.9
	C172.4,106.4,173.1,105.7,173.9,105.6L173.9,105.6z"/>
<path class="st1" d="M173.9,123.2h3.1c1-0.1,1.8,0.7,1.9,1.6c0.1,1-0.7,1.8-1.6,1.9c-0.1,0-0.2,0-0.3,0h-3.1c-1-0.1-1.7-0.9-1.6-1.9
	C172.4,123.9,173.1,123.2,173.9,123.2L173.9,123.2z"/>
<path class="st1" d="M143.9,123.7c1,0,1.8,0.8,1.8,1.8v5.6c-0.1,1-0.9,1.7-1.9,1.6c-0.9-0.1-1.6-0.8-1.6-1.6v-5.6
	C142.1,124.5,142.9,123.7,143.9,123.7C143.9,123.7,143.9,123.7,143.9,123.7z"/>
<path class="st7" d="M143.2,116.8h17.3c1,0,1.8-0.8,1.8-1.8V72.2c0-1-0.8-1.7-1.8-1.7c-0.4,0-0.9,0.2-1.2,0.5l-32,36.8l1.7,3.3
	l29.8-34.5v36.6h-14.6L143.2,116.8z"/>
<path class="st7" d="M126.3,135.6H182V36l-17.3,18.5c-0.7,0.7-1.8,0.6-2.5-0.1c-0.6-0.6-0.6-1.6-0.1-2.3L182,30.9V20.1l-62.4,70.3
	c-0.9-0.8-1.8-1.5-2.8-2.2L181.1,16c0.2-0.2,0.4-0.4,0.6-0.5c0.7-0.4,1.4-0.4,2.1-0.2h0.1l0.2,0.1c0.8,0.4,1.4,1.2,1.4,2.1
	c0,0.1,0,0.2,0,0.2v118.7c0,1.4-1.2,2.6-2.6,2.6h0h-55.3C127.6,139,126.3,135.7,126.3,135.6z"/>
<path class="st2" d="M121.5,48.7c2.7-0.1,5,2,5.1,4.7c0,0,0,0,0,0v63.3c-0.1,10.1-5.5,19.4-14.2,24.6c-8.2,5-18.2,4.9-24.9,4.9
	c-7.3,0-17.1-0.8-24.8-6.4c-7.4-5.3-11.7-13.8-11.8-22.9V53.4c0.1-2.7,2.3-4.8,5-4.7L121.5,48.7z"/>
<path class="st8" d="M53.4,113.4c-2.3-4.8-10.6-5.7-15-2.8s-6.1,8.9-5.1,14.1s4.5,9.6,8.6,13c9.8,8.1,23,10.8,35.2,7.5
	c5.7-1.6,11-5.6,16.9-6.4"/>
<polygon class="st2" points="50.9,107.5 50.9,117.5 54.3,118.7 56.8,113.7 55,108.7 "/>
<path class="st4" d="M116.9,54.9c2.3-0.1,4.3,1.7,4.4,4.1c0,0,0,0,0,0v54.5c-0.1,8.7-4.7,16.7-12.2,21.1c-7.1,4.3-15.7,4.2-21.4,4.2
	c-6.2,0-14.7-0.7-21.3-5.6c-6.3-4.6-10.1-11.9-10.2-19.7V58.9c0.1-2.3,2-4.2,4.3-4.1H116.9z"/>
<path class="st1" d="M160.9,126.8c-2.8-2.9-8.1-8.9-11.7-11.2c-16.4-11-32.8-8.7-47.7,6.7l-11.5,12c-2.8,2.9-2.7,7.5,0.2,10.2
	c1.4,1.3,3.2,2,5.1,2l62.3-0.8C164.1,145.6,165.4,131.4,160.9,126.8z"/>
<path class="st0" d="M107.1,117.6l-4.1-0.1c-5.8-0.1-10.6,4.6-10.7,10.4c0,0,0,0,0,0l-0.1,4c0,0.9,0.7,1.7,1.7,1.7
	c0.5,0,0.9-0.2,1.2-0.5l13.1-12.6c0.7-0.6,0.8-1.7,0.1-2.4C108,117.8,107.6,117.6,107.1,117.6z"/>
<path class="st8" d="M77.2,145.2c5.7-1.6,11-5.6,16.9-6.4"/>
<path class="st9" d="M90.3,134.8c0,2,3.1,3.5,4.5,2.1l17.2-16.5c1.4-1.4-0.2-4.3-2.2-4.3"/>
</svg>
