<svg id="Calque_1" data-name="Calque 1" xmlns="http://www.w3.org/2000/svg" viewBox="0 0 189.37 176.74"><defs><style>.cls-1,.cls-2,.cls-3{fill:none;stroke-linecap:round;stroke-linejoin:round;}.cls-1{stroke:#2f7570;stroke-width:11.1px;}.cls-2{stroke:#3b4c43;stroke-width:11.54px;}.cls-3{stroke:#c59d58;stroke-width:10.6px;}.cls-4{fill:#e4d6a1;}.cls-5{fill:#2f7570;}.cls-6{fill:#3b4c43;}.cls-7{fill:#c59d58;}.cls-8{fill:#297470;}</style></defs><title>logoPlan de travail 1 copie</title><line class="cls-1" x1="68.33" y1="152.79" x2="6.91" y2="80.68"/><line class="cls-2" x1="113.14" y1="168.73" x2="6.91" y2="43.99"/><rect class="cls-3" x="36.73" y="33.47" width="123.18" height="85.14" transform="matrix(0.19, -0.98, 0.98, 0.19, 5.14, 158.29)"/><path class="cls-4" d="M69.43,16.91,49.62,120.3a4.36,4.36,0,0,0,3.26,5.23l69.36,13.29a4.36,4.36,0,0,0,5-3.65L147,31.78a4.36,4.36,0,0,0-3.27-5.23L74.4,13.26A4.36,4.36,0,0,0,69.43,16.91Z"/><path class="cls-5" d="M121.13,127c-.12.19,1.1.2,1.31.25C122.2,126.94,120.81,127,121.13,127Z"/><polygon class="cls-5" points="118.56 123.6 119.06 123.68 117.86 123.14 118.56 123.6"/><path class="cls-5" d="M118.63,120.42c-2.07.33.35,1.17-.4,1.73l-.48.08,1.67.3C119.17,121.82,118.07,120.92,118.63,120.42Z"/><path class="cls-5" d="M123.05,118.4c-.8.17-.72-.39-.22.47l.2-.09A.86.86,0,0,1,123.05,118.4Z"/><path class="cls-5" d="M123,118.78c.07.39.66-.29,0,0Z"/><path class="cls-5" d="M122.42,117l.77.47c.48-.15.53-.66.89-.51C123.63,116.41,123.17,116.59,122.42,117Z"/><path class="cls-5" d="M120.86,116.65l.34.23C121.39,116.81,121.45,116.73,120.86,116.65Z"/><path class="cls-5" d="M121.9,117.39l-.7-.51c-.33.11-1,.19.26.24C120.84,117.13,121.44,117.18,121.9,117.39Z"/><path class="cls-5" d="M121.61,117.73c-.43.33-.69.69-1.44.26C120.52,118.9,122,118.69,121.61,117.73Z"/><path class="cls-5" d="M116.49,120.3l-.61.33.7.27C116.23,120.76,117.14,120.27,116.49,120.3Z"/><path class="cls-5" d="M122.94,113.35c-.44.06-1.11.44-1.65.59l.58.31C122.12,114,122.31,113.52,122.94,113.35Z"/><path class="cls-5" d="M121.29,113.94l-.87-.44C120.44,114.05,120.82,114.07,121.29,113.94Z"/><path class="cls-5" d="M118.56,116.83q.84.33,1.68.72c-.57-.31-1.14-.61-1.72-.88Z"/><path class="cls-5" d="M122.34,110.82l1.1.09c-.57-.09-1.14-.16-1.7-.22Z"/><path class="cls-5" d="M121.57,109.19c.9,0,1.17-.93,1.78-.81a3,3,0,0,0-1.95-.65C121.92,108,122,108.42,121.57,109.19Z"/><path class="cls-5" d="M120.26,107.55a7.61,7.61,0,0,0,1.14.18A2.51,2.51,0,0,0,120.26,107.55Z"/><path class="cls-5" d="M120.37,112.43c.25-.12.9-.39,1.08-.83l-1.12.59Z"/><path class="cls-5" d="M120.29,112.2h0l-.09-.54A4.19,4.19,0,0,1,120.29,112.2Z"/><path class="cls-5" d="M120.38,112.49v-.06C120.26,112.48,120.22,112.51,120.38,112.49Z"/><path class="cls-5" d="M119.47,115.26c-.73-.22-1.6-.71-2.51.1C117.83,115.43,118.37,115,119.47,115.26Z"/><path class="cls-5" d="M119,113.17l-.13.67a2.41,2.41,0,0,1,1.13-.22Z"/><polygon class="cls-5" points="118.5 112.98 118.95 113.17 119 112.92 118.5 112.98"/><path class="cls-5" d="M119.74,109.19a1.34,1.34,0,0,1-1-.65,2.59,2.59,0,0,0,.15,1.24C119.23,109.68,119.94,109.58,119.74,109.19Z"/><path class="cls-5" d="M120,110.71l-.09,0C119.79,110.74,119.77,110.78,120,110.71Z"/><path class="cls-5" d="M116.78,105.34l-.15.18.19-.12Z"/><path class="cls-5" d="M118.66,109.93c-.11.36.23.4.65.42a1.49,1.49,0,0,1-.46-.57C118.68,109.83,118.57,109.87,118.66,109.93Z"/><path class="cls-5" d="M119.22,106.84a6.89,6.89,0,0,0-.33.81C119.17,107.32,119.53,106.73,119.22,106.84Z"/><path class="cls-5" d="M120.16,110.46l.07,0C120.45,110.3,120.33,110.35,120.16,110.46Z"/><path class="cls-5" d="M120.16,110.46a3,3,0,0,0-.85-.11,1.64,1.64,0,0,0,.56.32Z"/><path class="cls-5" d="M109.91,109.5c.89-.72,2.13-.92,1.38.2,1-.12,4-2.42,5.34-4.18a2.24,2.24,0,0,1-1.72.45c-.33.56-.4,2-1.53,2.15-.89-.25,0-.71.22-1.4-.95,1.12-2.2.61-3.68,2.14.3,0,.6,0,.91-.06C110.58,109,110.05,109.2,109.91,109.5Z"/><path class="cls-5" d="M117.29,106.68l.26.17a4.77,4.77,0,0,1,.75-1.71,2.05,2.05,0,0,0-1.48.26c.22.43.46.84.66,1.27Z"/><path class="cls-5" d="M118.2,108c-1.22.38-2,.13-3,1.11.43.58,1.16,0,1.85.12-.83-1,.79,0,1-1.15a1.62,1.62,0,0,1,.62.5,4.44,4.44,0,0,1,.19-.89l0,.06h0c-.12.13-.19.19-.14.09h0a3.42,3.42,0,0,1-.44.16c0-.47.26-.21.44-.16l.18-.08h0c-.42-.3-.86-.59-1.29-.86C117.55,107.19,117.77,107.47,118.2,108Z"/><path class="cls-5" d="M114.2,115.36a.9.9,0,0,1,.28-.09C114.32,115.24,114.21,115.24,114.2,115.36Z"/><path class="cls-5" d="M114.86,114.81c.19,0,.69,0,.61.24-.33.27-.59.12-1,.22A1.42,1.42,0,0,0,116,115l-.18,0a5.92,5.92,0,0,1,1.9-1.37A30.46,30.46,0,0,0,114.86,114.81Z"/><path class="cls-5" d="M116.53,111.78l-.92-.64c-.28.29-.56.56-.84.83l.6-.26C115.32,112.27,116,111.89,116.53,111.78Z"/><path class="cls-5" d="M117.21,104.86l1.16-.65c-.64.16-1.28.36-1.91.57C116.71,104.81,117,104.82,117.21,104.86Z"/><path class="cls-5" d="M116.14,103.78l.92-.7c-.27,0-.53.08-.8.14Z"/><path class="cls-5" d="M68.39,72.86l-.15-.42A1,1,0,0,0,68.39,72.86Z"/><path class="cls-5" d="M67.36,74.72l.5.28C67.61,74.78,67.42,74.65,67.36,74.72Z"/><path class="cls-5" d="M91.58,90.89c.08-1.12.34-2.81-.09-1.58l-.36,1.21C91.43,90.39,91.54,90.59,91.58,90.89Z"/><path class="cls-5" d="M74,90.41l-.25.3c.4-.19.77-.38,1.12-.57C74.56,90.24,74.26,90.33,74,90.41Z"/><path class="cls-5" d="M69.56,93.21c.09-.33.2-.65.31-1A2.27,2.27,0,0,0,69.56,93.21Z"/><path class="cls-5" d="M74,63.42l-.75-1.08C73,62.63,73.61,63,74,63.42Z"/><path class="cls-5" d="M105.05,96.56a1.56,1.56,0,0,0-.43-1C104.69,96.35,104.53,97.48,105.05,96.56Z"/><path class="cls-5" d="M79.92,79.68a2,2,0,0,0-.62-.48A1.46,1.46,0,0,0,79.92,79.68Z"/><path class="cls-5" d="M103.78,95.18a3.18,3.18,0,0,0,0,.34c.29-.1.58-.17.8,0C104.58,94.93,104.4,94.5,103.78,95.18Z"/><path class="cls-5" d="M76.9,39.82a.85.85,0,0,1,.14-.09C76.87,39.74,76.86,39.78,76.9,39.82Z"/><path class="cls-5" d="M88.47,29a.69.69,0,0,1,.14.37C88.69,29.33,88.67,29.22,88.47,29Z"/><path class="cls-5" d="M112.26,99.48c.28.11.12-.09,0,0Z"/><path class="cls-5" d="M110.25,104.23a1.92,1.92,0,0,0-.46.41A2.6,2.6,0,0,1,110.25,104.23Z"/><path class="cls-5" d="M98.8,101.64h0C98.76,101.89,98.76,101.84,98.8,101.64Z"/><path class="cls-5" d="M112.27,100.2a1.42,1.42,0,0,0-.08-.52A1.51,1.51,0,0,0,112.27,100.2Z"/><path class="cls-5" d="M112.58,99.69l.13.25C112.87,99.8,112.92,99.67,112.58,99.69Z"/><path class="cls-5" d="M111.89,99.29a.69.69,0,0,1,.3.39c0-.1,0-.18.07-.2S112.06,99.39,111.89,99.29Z"/><path class="cls-5" d="M82.12,56.35l.12-.05C81.71,56.14,81.8,56.22,82.12,56.35Z"/><path class="cls-5" d="M81.75,101.15l0-.05,0,0Z"/><path class="cls-5" d="M80.71,101.75c.86-1.35,1-1.1,1.07-.7l1.08-3.49Z"/><path class="cls-5" d="M70.79,68.48l-1.31-.12c-1-1.81,0-1.94-1.76-2.36,1.52,1.25,1.2,1.87.88,2.49s-.61,1.28,1,2.38l-1-.07c.11-.09-.08-.23,0-.32-2.09-.24,2.07,2,1.06,2.69a1.13,1.13,0,0,1-1.36-.31c.14.41.29.81.45,1.22-.17.19-.76-.17-.58-.37L68,75.06l-.1-.06c.47.43,1.2,1.21,1.5,1.54-.65.09-.33-.31-.82-.42.21.35.41.69.62,1-1.06-.09-1.76-1-1.43-1.45-2-.44-1.79-.17-1.47.24s.81,1-.53,1.38l-.23-.91c-1.13-.14-1.57,0-1.91.29a5,5,0,0,1-1.43.91c.79-.17,3.92-.75,4.59.38-.36.16-.6.37,0,1.11-1.36-.36-1.15.27-1.22.93l-1.81-.4c.36.88,1.31,1,2.08,1.49-.29.74-1.74.8-3,.93-.22.72.38.48,1.06.32s1.43-.27,1.54.48c-.74,1,0,1.87,1.2,2.88-.57.79-1.14,0-1.64.37.51.15,1,.28,1.52.4,0,.15-.47.19-.7.21.66.41,1.84-.29,2.47.33,1-.14.36.37-.22,1s-1,1.51.27,1.53c-.41.42-1.09.32-1.74.66a9.37,9.37,0,0,0,1.79.58,7.76,7.76,0,0,0,2,0c-.2.44-.39.89-.56,1.36.82-1.28,2.7-1.45,4.09-1.84.44-.54.88-1,1.06-1.23a9,9,0,0,0,1.27,0,5.55,5.55,0,0,1-1.46,1,4.7,4.7,0,0,0,.45-.17A5,5,0,0,1,73,91.67c.21-.32.45-.64.69-1a17.94,17.94,0,0,0-3.06,1.68,1,1,0,0,1,.61,0,2.09,2.09,0,0,0-.66.38c-.14.15.27,0,.76-.14-.49.49-1,1-1.46,1.48l.69-.46a13.06,13.06,0,0,0,.16,2c2.42-.6,5.08-2.45,6.61-2.56A18.64,18.64,0,0,0,75,96.72c.31-.92-.06-.92-.62-.81s-1.3.29-1.54-.15c.25.45-.37,1.06-.67,1.2a17.29,17.29,0,0,0,2.46-.41c-.86,1.2-.31,1.11-.22,1.86,1.21-2.65,2.11-1,3-1.64-.41.89-.88,1.78-1.53,1.18-.12,2.4,2.4-2.62,2.26-.64-.15,0-.16-.21-.43.21.7-.64,1.23.34.71,1l-.15,0c.87.75,2.8,1.13,3.8-1.13-.1.3-1.18,2.74-1.42,3.18l4.55-7.16c-.9,1.92-2.19,6.85-3.34,7.69.09.36.22.79.93.26a10.07,10.07,0,0,1,1-3.11,16.84,16.84,0,0,0-.16,3.46c0-.51,1.39-3.53,1.69-3.3-.24.45-1.16,3.08-1.41,3.36l2-2.73a10.79,10.79,0,0,0-1.18,3.51c.14-.63.7.33,1,.11l-.08-.84c.76.83,2.58-3.93,3.46-3.41-.36.59-1.78,3.77-1.45,4.34.82-1.48,3.86-7.15,5.16-8l-.19,1,1-.77c-1.3,2.2-4.32,6.72-5.67,8.41.08.85-.31,1.09.25,1.22-.13.91-.77,1.16-1,1.15l1,1c.65-1.85,1.65-1.47,2.19-3l-2.07,1.37c.65-1.84,2.77-4.88,3.52-4.22-.06.81-1.42,3.18-1.63,3.8.35-.59,1.29-.88,1.2-.41l-.75.84c.22.87,1.73-2.12,1.64-.15.16.19-.3,2.58.15,1.52a67.34,67.34,0,0,1,3.71-10.16,17.9,17.9,0,0,1,.12,3.52c-.29,1.76-2,3.7-2.25,5.21a4.67,4.67,0,0,1,.78-1.21c0,.51-.69,1.51-.14,1.46.79-1.82.88.52.82-1.48.65-.35.33.57.89.69a10.59,10.59,0,0,1,2.7-4.24,8,8,0,0,0-.41,1.41c.86.53,1,1.56,1.83,1.93a3.86,3.86,0,0,1-.45,1.89c.25-.27.63-.85.9-.78-.22,1.78-.66,0-1.12,2,.49-1,1.26-1.18,1.92-1.67.64-1.66-.69-.69-1.32-.18,1-2.25,2.64-4.33,4.08-4.9,1-.19-.37,1.58-.09,1.33,1.14,1,3.2-3.19,3.57-1-.33,1.63-1.57,2.69-2,3.72-.84.2-.36-1.35-.79-1.51l.12.91c-.43.35-1,.51-1,0-.14.71.35,1.06.92,1.44a2.37,2.37,0,0,1,1.26,1.69c.45-.33,1-.55,1.28-1.16-.14,0-.27,0-.41,0,.44-1.24,1.58-1,1.54-1.77.93-.41,2.33-1.11,2.5,0l-1,1.44c.33-.4.3-1.13-.21-.85.37-.2.22.46.17,1s0,.85.93.12c.15-.42.29-.85.43-1.29,1-.29,3-1.07,3.11,0,1-1.48-.26,0,.79-1.87-1.44,2.15-1.5-1.59-2.74,1,1.17-2.19-.07-1.41.59-3.51-.34.48-.47,1-.84.41a3.39,3.39,0,0,1-.43.32.11.11,0,0,1,0-.06v.08c-.08,0-.09.06,0,0a2.38,2.38,0,0,1-.27.91c-1.09.87-1.84.25-2.5.67-.14-.43.5-.48.69-1.11l-1,.6c.69-1.12.34-2.35,1.51-2.52-.22-.17-.44-.32-.66-.48,0-.88-.45-1.46-1.06-1.17-.2-.44-1.5.83-.74.08l-1.42.17.14-.29c-1-.67-3,1-3.14-1.65-.47.16-.95.41-1.35-.16l.31-1.09c-.55.2-.83-1.55-1.42-.52.64-3-1.67-1.35-2.15-2.12L98.65,93c-.44-.26-1,0-1.83.29l-.44,1.23c-.88.8-.95-1.36-1.8-1.54.24-.45.39-.25.43.09C95.12,90,92.24,94.3,92.15,92c-.39.36-.49.15-.52-.21a.1.1,0,0,0,.08,0l-.08,0c0-.25,0-.53,0-.77a3.62,3.62,0,0,0,0,.75,1.31,1.31,0,0,0-.85.23l.4-1.35s0,0-.07,0c-.06-.58-.43.54-.68,1.57a3.43,3.43,0,0,0-.63.67c.62-2.19-.92.46-.32-1.9-.59,1-1.55.35-2.57,2.61.1-.3.09-.47.23-.44-.18-.37-.35-.74-.85-.18l.53-1.71-1.46,2a4.15,4.15,0,0,1,1-2.94c-1.63,1.63-1,.47-2.49,2.13l.45-1.06c-.28-.06-1.26,1.21-1.07.27.1-1.14-.57-1.48-1.28-1.84a3.5,3.5,0,0,1-1-.66,1.24,1.24,0,0,1-.22-1.14c-.82,1.48-.72,1.1-.57.64s.38-1-.42.05A7.53,7.53,0,0,1,80.82,87c-.38.22-.3-.11-.28-.28s-.08-.19-1,.51c.56-.59.9-.78,1.22-1.15-.14.11-.58.43-.25.07a6.38,6.38,0,0,1,.81-.66,32.59,32.59,0,0,0-4.09,3c.68-.93.51-.88-.91-.18.58-.55,1.18-1.1,1.59-1a1.49,1.49,0,0,0,0-.69c-.08-.22-.36-.31-1.23.1.41-.27,0-.3-.23-.26,0-.46.12-.55-.19-.9l-.26.21c-2.27.51-.58-.25-.92-.54l.23,0c.72-.6.57-.62.38-.69s-.32-.17.6-.63l-1.41.14c-1.52.08-1.06-.21-.37-.49s1.62-.5,1.08-.78l-.82.13c-.49-.18.56-.33,1.77-.34s2.59.1,2.79.07a2,2,0,0,1,.59.19c1.81,0-1.79-.36-2.12-.81a19.51,19.51,0,0,0,2.63.56c.39.06-.31-.35-.86-.8s-.92-1,.05-.83a4.08,4.08,0,0,1-1.92-.82c0-.24.7-.22,1.23-.26s.8-.16-.19-.88a2.83,2.83,0,0,1,.56.21c-.4-.55-.41-1.38-1.4-2.24,2.15,1.12,1.89.42,1.63-.34s-.51-1.53,1.27-.19c.12-.32.28-.61.42-.93l.33.31c.61-.29,0-1.13-.66-2,.32.09.55.45.72.62,1.3-.11,1.28-.33.36-2.56l1.1.94c-.44-.76,2.81.38,2.48-1.75a1.91,1.91,0,0,1,.38.54c-.13-1.09,1.21-1.11,2.19-1.43s1.56-1-.44-2.7c-.16-.55-.32-1.07-.52-1.6-.52.48-1,.1-1.43-.35s-.92-1-1.42-1c0-.51,2-.23,1.92.41l-.28,0c2.27,1.6,1.64-1,3.29-.2.2-.5.41-1,.65-1.49,1.07-2.28,2.25-4.66,2.27-6.75L90,56.73l.1-.82c.48-.23,1.65-.39,1.58.23,1.2-.39-1.06-1-1.52-.92.77-1.17,2.51.26,2.53-.07l-.19-.48-.24.13c-.9-.32-1.82-.27-1.78-.93.39-.45,1.29-.34,1.35-.51.15,0,.22-.08,0-.26l.08-.94-1.63.55c-.87-.31,0-.85-1.85-.22,2.84-.94.67-3.4,1.53-3.87-1.28-.41-1.32-.95-1.25-1.63-.33.2-2.2.52-2-.08,3.89-.24,1.56-1.25,4.29-2-1.8.62-.64-1.59-3.19-.63.26-.52,1.44-.2,2.31-.67-1.63-1,.69-2.63,0-4a5.22,5.22,0,0,1-2,.15l2.45-1c-.28-.25-3,.08-1.26-.63-.41.12-1,.3-1.23.13,2.16-3.05-2.68-5.42,1.65-8.76-.94.49-1.07.25-1.14,0-.21.22-1.25.14-1.94.26l1.78-1.4c-1.94,0-.28-1.24-2.12-1.15l.38.33c-2.22-.25-4.72,1.24-7.5,1.49,2.52.27-3.46,1.88.16,2.39-.55.26-.92-.07-1.55.11,1.22.09,1.5.34,1,.92l-.3,0c.46,1.41-.64,2.17-1.23,3.89L78.67,36c-.15.37-.57.49-.89.7,2.12.16,0-1,2.33-.9-2.73.79.24,2.48-2.88,3.15,0,.54,1.56-.34,1.61.2l-.84.25h1.11c-.14.38-1.19.68-1.91.78.08-.1-.23-.22-.3-.31-1,.58.49,1.25.18,1.45l.47-.58c1,1.38,0,3.3,2,4.52l.64-.18c1.32.94-.61.95.08,2.07l-.16,0c.67.16,1,.44,1,.78-.79-.22-1.4.73-2.28.44,1.41,1,1.07.46,3.56,1l-1,.3c1,.16,1.51.12,1.86.68-1-.38-1.59.57-2.87.16-2.2,1.52,2.58,1.58-.78,2.55,3,.23,1.52-1.27,2.19-1,.94-.38,2.27.22,2,.64,0,.4-3.71,1.13-3.56,2,0-.09-.22-.08-.21-.17-.72.42,1.09.58-.11,1.08,1.82.08-.06.51,2.24.42l-.59-.78c.63.39,3.37.7,2.09,1.56a6.85,6.85,0,0,1-1.44-.38c-.67.24.47.4-.22.63-2.3,0-.53-.9-2.33-1.26-.95.29,1.72.75-.78.67,1.59.07,1.5.28,1.31.5s-.47.43.74.7l-1.38-.06c.22.08.86.24.82.38-.59-.11-1.19-.2-1.78-.29.76.18.42.35,0,.45s-.95.17-.55.33c0-.24.42-.24,1-.19a6.31,6.31,0,0,0,1.73.07c1.74,1.1-3.64.11-3.07.6-.18-.08.86-.05,1.47.19A3.93,3.93,0,0,1,77.48,59a.4.4,0,0,0,.13.13,3.31,3.31,0,0,0,.91.3,3.74,3.74,0,0,1,1.09.34l-.12,0c-1.41-.34.72.45,1.09.91l-1.29-.55c-1,.09,2.58,1.39,1.31,1.49-.51-.41-1-.79-1.59-1.16a5.09,5.09,0,0,1,.3.5L78,60.06c.89.83.54.81,0,.82.87.49,2.07,1.47,1.87,1.83-.82-.29-1-.92-1.14-.37-.62-.64-1.42-1.39-.27-.79-.36-.28-.65-.59-1-.87-.89-.4-.51.31-.61.46a.5.5,0,0,1,.37.06c.37.58.69,1.2,1,1.83a2.65,2.65,0,0,1-1-.94c0,.22.42.73.34,1a8.62,8.62,0,0,1-1.89-2.17,12.2,12.2,0,0,1,.44,1.41c-.4-.3-1.28-.63-1.51-1-.79-.15.79,2.37-.36,2.28a1,1,0,0,1,.23.61c-.67.31-2.13-.2-1.68,1.6-.63-.31-1.27-.62-1.92-.92-.22.94,2.45,1.13,2.12,2.65-.12,1.13-1.56-.86-2.22-1,.47,1.07,1.61,3-.22,2.67C70.37,68.8,70.75,68.8,70.79,68.48Zm-4,9.49c-.22-.28-1-1-.11-.86C68.11,77.86,67.33,77.77,66.78,78Zm6,15.13c-.45.21-.44-.12-.2-.64C72.78,92.52,72.87,92.7,72.76,93.1Zm36.34,5.67-.06,0C109,98.13,109,98.39,109.1,98.77Zm.44,1a.93.93,0,0,0,.35-.48c-.24.27-.42.19-.56,0C109.19,99.61,109.15,99.88,109.54,99.76ZM91.35,53.32l-.35.19C90.56,53.22,90.94,53.27,91.35,53.32Z"/><path class="cls-5" d="M70.08,92.9a3.56,3.56,0,0,1,.57-.51A.8.8,0,0,0,70.08,92.9Z"/><path class="cls-5" d="M74.17,63.62h0l-.16-.2Z"/><path class="cls-5" d="M94.16,105.78a1.82,1.82,0,0,1,0-.77C94,105.32,94,105.62,94.16,105.78Z"/><path class="cls-5" d="M115.1,101c-.26-.07-.5-.14-.75-.19.29.16.17.48.14.75C114.7,101.3,114.92,100.86,115.1,101Z"/><path class="cls-5" d="M111.7,110.37c.18,0,.08.11.27.08l.55-.36A.51.51,0,0,0,111.7,110.37Z"/><path class="cls-5" d="M112.3,104.77c-.79.87-.27.81.16,1,0,0,0,0,0-.06C113.69,104.63,113,104.66,112.3,104.77Z"/><path class="cls-5" d="M112.55,105.76a.38.38,0,0,1,.26.25C113.34,105.6,112.81,105.81,112.55,105.76Z"/><path class="cls-5" d="M110.94,99.73c0,.37,1-1.17.78-.71C112.75,97.9,109.59,99.78,110.94,99.73Z"/><polygon class="cls-5" points="109.78 107.73 110.72 106.61 109.76 107.32 109.78 107.73"/><path class="cls-5" d="M108.51,105.22l.18.65a.66.66,0,0,1,.42-.3C108.89,105.31,108.76,104.88,108.51,105.22Z"/><path class="cls-5" d="M109.11,105.57a.36.36,0,0,0,.49.1A.67.67,0,0,0,109.11,105.57Z"/><path class="cls-5" d="M109,107.57l.1-.33c-.06-.11-.13-.21-.2-.32C108.91,107.13,108.94,107.36,109,107.57Z"/><path class="cls-5" d="M103.72,102.07l-.69.13c-.26.43-.25.77,0,.68C103.32,102.62,103.6,102.54,103.72,102.07Z"/><path class="cls-5" d="M103.4,106.37a4.49,4.49,0,0,1,.32-1.09l-.86,1.6Z"/><path class="cls-5" d="M101.87,106.07c-.27.43-1.27,1-.65,1.16C101.47,106.8,102.12,106.65,101.87,106.07Z"/><polygon class="cls-5" points="95.14 100.85 95.28 100.88 96.33 98.11 95.14 100.85"/><path class="cls-5" d="M85.68,104.8c.36.9.8-1.65,1-.61.4-.59-.2-.85.17-1.35C86.25,103.38,86.21,102.92,85.68,104.8Z"/><path class="cls-5" d="M86.89,102.84a3.82,3.82,0,0,0,.35-.35A1.64,1.64,0,0,0,86.89,102.84Z"/><polygon class="cls-5" points="89.87 27.31 90.44 26.82 89.48 27.21 89.87 27.31"/><path class="cls-5" d="M87.6,26.75l1.86-.31-1.72-.06C87.83,26.47,88,26.63,87.6,26.75Z"/><path class="cls-5" d="M62.61,78.83,63,79c.51,0,.58-.19.74-.52Q63.2,78.63,62.61,78.83Z"/><polygon class="cls-5" points="67.12 71.33 67.02 71.43 68.62 72.07 67.12 71.33"/><path class="cls-5" d="M69.21,64.63c-.25.17-.15.67-.39.84C69,64.79,70.87,66,69.21,64.63Z"/><rect class="cls-6" x="137.55" y="15.86" width="20.57" height="79.38" transform="translate(110.81 -97.98) rotate(55.85)"/><polygon class="cls-7" points="98.54 89 120.77 86.35 109.22 69.32 98.54 89"/><polygon class="cls-8" points="98.54 89 103.38 88.42 100.86 84.72 98.54 89"/></svg>