<?xml version="1.0" encoding="utf-8"?>
<!-- Generator: Adobe Illustrator 22.1.0, SVG Export Plug-In . SVG Version: 6.00 Build 0)  -->
<svg version="1.1" id="trait_vert" xmlns="http://www.w3.org/2000/svg" xmlns:xlink="http://www.w3.org/1999/xlink" x="0px" y="0px"
	 viewBox="0 0 203.5 59.5" style="enable-background:new 0 0 203.5 59.5;" xml:space="preserve">
<style type="text/css">
	.st0{fill:none;stroke:#2E746F;stroke-width:2.2094;stroke-linecap:round;stroke-linejoin:round;stroke-miterlimit:10;}
	.st1{fill:none;stroke:#424F44;stroke-width:2.2964;stroke-linecap:round;stroke-linejoin:round;stroke-miterlimit:10;}
	.st2{fill:none;stroke:#C69E58;stroke-width:2.5902;stroke-linecap:round;stroke-linejoin:round;stroke-miterlimit:10;}
	.st3{fill:none;stroke:#C69E58;stroke-width:2.2964;stroke-linecap:round;stroke-linejoin:round;stroke-miterlimit:10;}
	.st4{fill:none;stroke:#E4D6A1;stroke-width:2.0198;stroke-linecap:round;stroke-linejoin:round;stroke-miterlimit:10;}
	.st5{fill:none;stroke:#2E746F;stroke-width:2.7346;stroke-linecap:round;stroke-linejoin:round;stroke-miterlimit:10;}
	.st6{enable-background:new    ;}
	.st7{fill:#2F7570;}
	.st8{fill:#2F3231;}
</style>
<g>
	<line class="st0" x1="14.7" y1="34" x2="2.4" y2="19.7"/>
	<line class="st1" x1="23.6" y1="37.2" x2="2.4" y2="12.3"/>
	<line class="st2" x1="2.4" y1="2" x2="2.4" y2="58"/>
	<line class="st3" x1="18.4" y1="54.8" x2="39.5" y2="30"/>
	<line class="st4" x1="44.5" y1="11.5" x2="44.5" y2="57.4"/>
	<path class="st3" d="M39.8,2v56C54,58,65.7,47.4,67.5,33.7c0.2-1.2,0.2-2.4,0.2-3.7C67.8,14.5,55.2,2,39.8,2z"/>
	<line class="st5" x1="39.7" y1="2.2" x2="39.7" y2="57.8"/>
</g>
<g class="st6">
	<path class="st7" d="M81.9,23.7c-0.2,0.3-0.4,0.5-0.7,0.5c-0.2,0-0.5-0.2-0.6-0.5l-4-7.7v13.7c0,0.2-0.1,0.4-0.3,0.5
		s-0.4,0.2-0.5,0.2c-0.2,0-0.4-0.1-0.6-0.2c-0.2-0.1-0.2-0.3-0.2-0.5V13.4c0-0.3,0.1-0.5,0.2-0.6c0.2-0.1,0.3-0.2,0.6-0.2
		c0.3,0,0.5,0.1,0.7,0.3c0.2,0.2,0.4,0.5,0.5,0.8l4.2,8l4.2-8c0.2-0.3,0.3-0.6,0.5-0.8c0.2-0.2,0.4-0.3,0.7-0.3
		c0.2,0,0.4,0.1,0.6,0.2c0.2,0.1,0.2,0.3,0.2,0.6v16.3c0,0.2-0.1,0.4-0.2,0.5c-0.2,0.1-0.3,0.2-0.6,0.2c-0.2,0-0.4-0.1-0.5-0.2
		c-0.2-0.1-0.3-0.3-0.3-0.5V16.1L81.9,23.7z"/>
	<path class="st7" d="M94.2,18.7c0.8,0,1.5,0.1,2,0.4c0.6,0.3,1,0.6,1.4,1c0.3,0.4,0.6,0.9,0.8,1.5c0.2,0.6,0.2,1.1,0.2,1.7v6.3
		c0,0.2-0.1,0.3-0.2,0.4c-0.1,0.1-0.3,0.2-0.6,0.2c-0.2,0-0.4-0.1-0.5-0.2c-0.1-0.1-0.2-0.3-0.2-0.4v-1.1c-0.4,0.5-0.9,0.9-1.5,1.3
		c-0.6,0.4-1.3,0.6-2.1,0.6c-0.5,0-0.9-0.1-1.3-0.2c-0.4-0.1-0.7-0.3-1-0.6c-0.3-0.3-0.5-0.6-0.7-1c-0.2-0.4-0.3-0.9-0.3-1.4
		c0-0.7,0.1-1.2,0.4-1.6c0.3-0.4,0.7-0.8,1.2-1c0.5-0.2,1.1-0.4,1.8-0.5c0.7-0.1,1.5-0.1,2.3-0.1H97v-0.6c0-0.4-0.1-0.8-0.2-1.2
		c-0.1-0.4-0.3-0.7-0.5-1.1c-0.2-0.3-0.5-0.6-0.9-0.8c-0.4-0.2-0.8-0.3-1.3-0.3c-0.4,0-0.7,0-1,0.1c-0.3,0.1-0.5,0.2-0.7,0.2
		c-0.2,0.1-0.4,0.2-0.5,0.2c-0.1,0.1-0.2,0.1-0.3,0.1c-0.2,0-0.4-0.1-0.5-0.3c-0.1-0.2-0.2-0.4-0.2-0.6c0-0.2,0.1-0.3,0.3-0.5
		s0.4-0.3,0.8-0.4c0.3-0.1,0.7-0.2,1.1-0.3C93.4,18.8,93.8,18.7,94.2,18.7z M97,25.1h-1c-0.6,0-1.1,0-1.6,0.1c-0.5,0-1,0.1-1.4,0.3
		c-0.4,0.1-0.7,0.4-1,0.6c-0.2,0.3-0.4,0.6-0.4,1.1c0,0.7,0.2,1.2,0.6,1.5c0.4,0.3,0.9,0.5,1.5,0.5c0.4,0,0.8-0.1,1.1-0.2
		s0.7-0.4,1-0.6c0.3-0.2,0.6-0.5,0.7-0.8c0.2-0.3,0.3-0.6,0.3-0.9V25.1z"/>
	<path class="st7" d="M103.1,29.7c0,0.2-0.1,0.3-0.2,0.4c-0.2,0.1-0.3,0.2-0.6,0.2c-0.2,0-0.4-0.1-0.6-0.2c-0.1-0.1-0.2-0.3-0.2-0.4
		V19.5c0-0.2,0.1-0.3,0.2-0.4c0.1-0.1,0.3-0.2,0.6-0.2c0.2,0,0.4,0.1,0.5,0.2c0.1,0.1,0.2,0.2,0.2,0.4v1.1c0.3-0.5,0.7-0.9,1.2-1.3
		c0.5-0.4,1.2-0.6,2-0.6c0.6,0,1.1,0.1,1.7,0.4c0.5,0.2,1,0.6,1.4,1c0.4,0.4,0.7,0.9,0.9,1.4c0.2,0.5,0.4,1.1,0.4,1.8v6.4
		c0,0.2-0.1,0.4-0.3,0.5c-0.2,0.1-0.4,0.2-0.5,0.2c-0.2,0-0.4-0.1-0.5-0.2c-0.2-0.1-0.3-0.3-0.3-0.5v-6.4c0-0.4-0.1-0.8-0.2-1.1
		c-0.2-0.4-0.4-0.7-0.7-1c-0.3-0.3-0.6-0.5-1-0.7c-0.4-0.2-0.8-0.3-1.2-0.3c-0.4,0-0.7,0.1-1.1,0.2c-0.3,0.1-0.7,0.3-0.9,0.6
		c-0.3,0.3-0.5,0.6-0.7,1c-0.2,0.4-0.3,0.8-0.3,1.3V29.7z"/>
	<path class="st7" d="M117.6,18.7c0.6,0,1.2,0.1,1.8,0.4c0.6,0.2,1,0.6,1.5,1c0.4,0.4,0.8,0.9,1,1.4c0.2,0.5,0.4,1.1,0.4,1.8v2.6
		c0,0.6-0.1,1.2-0.4,1.7c-0.3,0.6-0.6,1-1,1.5c-0.4,0.4-0.9,0.8-1.5,1c-0.6,0.3-1.1,0.4-1.8,0.4c-0.6,0-1.2-0.1-1.7-0.4
		c-0.5-0.2-1-0.6-1.5-1s-0.8-0.9-1-1.5c-0.2-0.5-0.4-1.1-0.4-1.7v-2.6c0-0.6,0.1-1.2,0.4-1.7s0.6-1,1-1.5c0.4-0.4,0.9-0.8,1.5-1
		S117,18.7,117.6,18.7z M120.7,23.3c0-0.4-0.1-0.8-0.2-1.1c-0.2-0.4-0.4-0.7-0.7-1c-0.3-0.3-0.6-0.5-1-0.7c-0.4-0.2-0.8-0.3-1.2-0.3
		c-0.4,0-0.8,0.1-1.2,0.3c-0.4,0.2-0.7,0.4-1,0.7c-0.3,0.3-0.5,0.6-0.6,1c-0.2,0.4-0.2,0.8-0.2,1.1v2.6c0,0.4,0.1,0.8,0.2,1.2
		c0.2,0.4,0.4,0.7,0.6,1c0.3,0.3,0.6,0.5,1,0.7s0.8,0.3,1.2,0.3c0.4,0,0.8-0.1,1.2-0.3c0.4-0.2,0.7-0.4,1-0.7c0.3-0.3,0.5-0.6,0.7-1
		c0.2-0.4,0.2-0.8,0.2-1.2V23.3z"/>
	<path class="st7" d="M126.4,29.7c0,0.2-0.1,0.3-0.2,0.4c-0.2,0.1-0.3,0.2-0.6,0.2c-0.2,0-0.4-0.1-0.6-0.2c-0.1-0.1-0.2-0.3-0.2-0.4
		V19.5c0-0.2,0.1-0.3,0.2-0.4c0.1-0.1,0.3-0.2,0.6-0.2c0.2,0,0.4,0.1,0.5,0.2c0.1,0.1,0.2,0.2,0.2,0.4v1.1c0.3-0.5,0.7-0.9,1.2-1.3
		c0.5-0.4,1.2-0.6,2-0.6c0.6,0,1.1,0.1,1.7,0.4c0.5,0.2,1,0.6,1.4,1c0.4,0.4,0.7,0.9,0.9,1.4c0.2,0.5,0.4,1.1,0.4,1.8v6.4
		c0,0.2-0.1,0.4-0.3,0.5c-0.2,0.1-0.4,0.2-0.5,0.2c-0.2,0-0.4-0.1-0.5-0.2c-0.2-0.1-0.3-0.3-0.3-0.5v-6.4c0-0.4-0.1-0.8-0.2-1.1
		c-0.2-0.4-0.4-0.7-0.7-1c-0.3-0.3-0.6-0.5-1-0.7c-0.4-0.2-0.8-0.3-1.2-0.3c-0.4,0-0.7,0.1-1.1,0.2c-0.3,0.1-0.7,0.3-0.9,0.6
		c-0.3,0.3-0.5,0.6-0.7,1c-0.2,0.4-0.3,0.8-0.3,1.3V29.7z"/>
	<path class="st7" d="M147,12.6c0.7,0,1.4,0.1,2,0.3c0.6,0.2,1.2,0.5,1.6,0.9c0.5,0.4,0.8,0.9,1.1,1.6c0.3,0.7,0.4,1.4,0.4,2.4v7.4
		c0,1-0.1,1.8-0.4,2.4c-0.3,0.7-0.6,1.2-1.1,1.6c-0.5,0.4-1,0.7-1.6,0.9c-0.6,0.2-1.3,0.3-2,0.3h-4.3c-0.2,0-0.4-0.1-0.5-0.2
		s-0.2-0.3-0.2-0.4V13.2c0-0.2,0.1-0.3,0.2-0.4c0.1-0.1,0.3-0.2,0.5-0.2H147z M143.6,14.1v14.7h3.4c1.1,0,1.9-0.3,2.5-0.9
		c0.6-0.6,0.9-1.5,0.9-2.8v-7.4c0-1.3-0.3-2.2-0.9-2.8c-0.6-0.6-1.5-0.9-2.5-0.9H143.6z"/>
	<path class="st7" d="M159.5,18.7c0.6,0,1.2,0.1,1.7,0.3c0.5,0.2,1,0.5,1.4,0.9c0.4,0.4,0.7,0.9,1,1.4c0.2,0.5,0.4,1.1,0.4,1.8
		c0,0.5-0.1,0.8-0.2,1.1s-0.3,0.5-0.5,0.6c-0.2,0.1-0.4,0.2-0.7,0.2c-0.3,0-0.5,0-0.8,0h-5.5V26c0,1,0.3,1.7,1,2.3
		c0.7,0.6,1.6,0.8,2.6,0.8c0.5,0,0.9,0,1.2-0.1s0.6-0.2,0.8-0.3s0.4-0.2,0.5-0.3c0.1-0.1,0.3-0.2,0.4-0.2c0.2,0,0.4,0.1,0.5,0.3
		s0.2,0.3,0.2,0.5s-0.1,0.3-0.3,0.5c-0.2,0.2-0.4,0.4-0.7,0.5c-0.3,0.2-0.7,0.3-1.1,0.4c-0.4,0.1-0.9,0.2-1.5,0.2
		c-0.8,0-1.5-0.1-2.1-0.3c-0.6-0.2-1.2-0.5-1.6-0.9c-0.5-0.4-0.8-0.9-1.1-1.5c-0.3-0.6-0.4-1.2-0.4-1.9v-2.7c0-0.6,0.1-1.2,0.4-1.7
		c0.2-0.5,0.6-1,1-1.4c0.4-0.4,0.9-0.7,1.5-1C158.2,18.9,158.8,18.7,159.5,18.7z M161.3,23.9c0.5,0,0.8-0.1,1-0.2
		c0.2-0.1,0.2-0.3,0.2-0.7c0-0.4-0.1-0.8-0.2-1.1c-0.1-0.4-0.4-0.7-0.6-1c-0.3-0.3-0.6-0.5-1-0.7c-0.4-0.2-0.8-0.3-1.2-0.3
		c-0.4,0-0.8,0.1-1.2,0.2c-0.4,0.2-0.7,0.4-1,0.6c-0.3,0.3-0.5,0.6-0.7,0.9s-0.2,0.7-0.2,1.2v0.9H161.3z"/>
	<path class="st7" d="M167.3,11.9c0.2,0,0.4,0.1,0.6,0.2c0.2,0.1,0.2,0.2,0.2,0.4v17.3c0,0.2-0.1,0.3-0.2,0.4
		c-0.2,0.1-0.3,0.2-0.6,0.2c-0.2,0-0.4-0.1-0.6-0.2c-0.1-0.1-0.2-0.3-0.2-0.4V12.4c0-0.2,0.1-0.3,0.2-0.4
		C166.9,11.9,167.1,11.9,167.3,11.9z"/>
	<path class="st7" d="M174.6,18.7c0.8,0,1.5,0.1,2,0.4c0.6,0.3,1,0.6,1.4,1c0.3,0.4,0.6,0.9,0.8,1.5c0.2,0.6,0.2,1.1,0.2,1.7v6.3
		c0,0.2-0.1,0.3-0.2,0.4c-0.1,0.1-0.3,0.2-0.6,0.2c-0.2,0-0.4-0.1-0.5-0.2c-0.1-0.1-0.2-0.3-0.2-0.4v-1.1c-0.4,0.5-0.9,0.9-1.5,1.3
		c-0.6,0.4-1.3,0.6-2.1,0.6c-0.5,0-0.9-0.1-1.3-0.2s-0.7-0.3-1-0.6c-0.3-0.3-0.5-0.6-0.7-1c-0.2-0.4-0.3-0.9-0.3-1.4
		c0-0.7,0.1-1.2,0.4-1.6c0.3-0.4,0.7-0.8,1.2-1c0.5-0.2,1.1-0.4,1.8-0.5c0.7-0.1,1.5-0.1,2.3-0.1h1.2v-0.6c0-0.4-0.1-0.8-0.2-1.2
		c-0.1-0.4-0.3-0.7-0.5-1.1c-0.2-0.3-0.5-0.6-0.9-0.8c-0.4-0.2-0.8-0.3-1.3-0.3c-0.4,0-0.7,0-1,0.1c-0.3,0.1-0.5,0.2-0.7,0.2
		c-0.2,0.1-0.4,0.2-0.5,0.2c-0.1,0.1-0.2,0.1-0.3,0.1c-0.2,0-0.4-0.1-0.5-0.3c-0.1-0.2-0.2-0.4-0.2-0.6c0-0.2,0.1-0.3,0.3-0.5
		c0.2-0.1,0.4-0.3,0.8-0.4c0.3-0.1,0.7-0.2,1.1-0.3C173.9,18.8,174.3,18.7,174.6,18.7z M177.5,25.1h-1c-0.6,0-1.1,0-1.6,0.1
		c-0.5,0-1,0.1-1.4,0.3s-0.7,0.4-1,0.6c-0.2,0.3-0.4,0.6-0.4,1.1c0,0.7,0.2,1.2,0.6,1.5s0.9,0.5,1.5,0.5c0.4,0,0.8-0.1,1.1-0.2
		c0.4-0.2,0.7-0.4,1-0.6c0.3-0.2,0.6-0.5,0.7-0.8c0.2-0.3,0.3-0.6,0.3-0.9V25.1z"/>
	<path class="st7" d="M185.8,27.7c-0.7,0-1.3-0.1-1.9-0.4c-0.2,0.1-0.3,0.2-0.5,0.4c-0.2,0.1-0.2,0.3-0.2,0.6c0,0.4,0.2,0.6,0.6,0.8
		c0.4,0.1,0.8,0.3,1.4,0.3c0.6,0.1,1.2,0.2,1.8,0.2c0.7,0.1,1.3,0.2,1.8,0.4c0.6,0.2,1,0.5,1.4,0.9c0.4,0.4,0.6,1,0.6,1.7
		c0,0.6-0.1,1.1-0.4,1.5c-0.2,0.4-0.6,0.8-1,1.1c-0.4,0.3-0.9,0.5-1.5,0.7S186.7,36,186,36c-0.7,0-1.4-0.1-2-0.2s-1.1-0.4-1.5-0.6
		c-0.4-0.3-0.8-0.6-1-1s-0.4-0.8-0.4-1.3c0-0.4,0.1-0.7,0.2-0.9c0.1-0.3,0.3-0.5,0.5-0.7c0.2-0.2,0.4-0.4,0.7-0.6
		c0.3-0.2,0.5-0.3,0.8-0.4c-0.4-0.1-0.7-0.3-1-0.6c-0.2-0.2-0.4-0.6-0.4-1.1c0-0.5,0.1-0.8,0.3-1.1c0.2-0.3,0.5-0.5,0.9-0.7
		c-0.4-0.4-0.7-0.8-1-1.3s-0.4-1.1-0.4-1.7v-0.9c0-0.6,0.1-1.1,0.3-1.6c0.2-0.5,0.5-0.9,0.8-1.3c0.4-0.4,0.8-0.6,1.3-0.8
		c0.5-0.2,1.1-0.3,1.7-0.3c0.6,0,1.1,0.1,1.6,0.3c0.5,0.2,0.9,0.4,1.3,0.8c0.2-0.5,0.5-0.9,0.8-1.1s0.6-0.4,0.9-0.4
		c0.2,0,0.4,0.1,0.5,0.2c0.1,0.1,0.2,0.3,0.2,0.4c0,0.1,0,0.3-0.1,0.4c-0.1,0.1-0.2,0.1-0.3,0.2c-0.2,0-0.4,0.1-0.7,0.3
		s-0.5,0.4-0.7,0.8c0.2,0.3,0.4,0.7,0.5,1.1c0.1,0.4,0.2,0.8,0.2,1.2v0.9c0,0.6-0.1,1.1-0.3,1.6c-0.2,0.5-0.5,0.9-0.9,1.3
		c-0.4,0.4-0.8,0.6-1.3,0.8C187,27.6,186.4,27.7,185.8,27.7z M189.2,32.6c0-0.5-0.2-0.9-0.5-1.1c-0.3-0.3-0.7-0.5-1.2-0.6
		c-0.5-0.1-0.9-0.2-1.5-0.3c-0.5,0-1-0.1-1.3-0.1c-0.6,0.2-1.1,0.4-1.5,0.8c-0.4,0.3-0.7,0.8-0.7,1.4c0,0.7,0.3,1.2,0.9,1.6
		c0.6,0.4,1.4,0.6,2.5,0.6c1,0,1.8-0.2,2.4-0.6C188.9,33.8,189.2,33.2,189.2,32.6z M188.5,22.7c0-0.8-0.2-1.5-0.7-2
		c-0.5-0.5-1.1-0.8-1.9-0.8c-0.8,0-1.5,0.3-1.9,0.8c-0.5,0.5-0.7,1.2-0.7,2v0.9c0,0.8,0.2,1.5,0.7,2c0.5,0.5,1.1,0.8,2,0.8
		c0.8,0,1.5-0.3,1.9-0.8s0.7-1.2,0.7-2V22.7z"/>
	<path class="st7" d="M197.1,18.7c0.6,0,1.2,0.1,1.7,0.3c0.5,0.2,1,0.5,1.4,0.9c0.4,0.4,0.7,0.9,1,1.4c0.2,0.5,0.4,1.1,0.4,1.8
		c0,0.5-0.1,0.8-0.2,1.1s-0.3,0.5-0.5,0.6c-0.2,0.1-0.4,0.2-0.7,0.2c-0.3,0-0.5,0-0.8,0h-5.5V26c0,1,0.3,1.7,1,2.3
		c0.7,0.6,1.6,0.8,2.6,0.8c0.5,0,0.9,0,1.2-0.1s0.6-0.2,0.8-0.3c0.2-0.1,0.4-0.2,0.5-0.3c0.1-0.1,0.3-0.2,0.4-0.2
		c0.2,0,0.4,0.1,0.5,0.3s0.2,0.3,0.2,0.5s-0.1,0.3-0.3,0.5c-0.2,0.2-0.4,0.4-0.7,0.5c-0.3,0.2-0.7,0.3-1.1,0.4
		c-0.4,0.1-0.9,0.2-1.5,0.2c-0.8,0-1.5-0.1-2.1-0.3c-0.6-0.2-1.2-0.5-1.6-0.9c-0.5-0.4-0.8-0.9-1.1-1.5c-0.3-0.6-0.4-1.2-0.4-1.9
		v-2.7c0-0.6,0.1-1.2,0.4-1.7c0.2-0.5,0.6-1,1-1.4c0.4-0.4,0.9-0.7,1.5-1C195.9,18.9,196.5,18.7,197.1,18.7z M198.9,23.9
		c0.5,0,0.8-0.1,1-0.2c0.2-0.1,0.2-0.3,0.2-0.7c0-0.4-0.1-0.8-0.2-1.1c-0.1-0.4-0.4-0.7-0.6-1c-0.3-0.3-0.6-0.5-1-0.7
		c-0.4-0.2-0.8-0.3-1.2-0.3c-0.4,0-0.8,0.1-1.2,0.2c-0.4,0.2-0.7,0.4-1,0.6c-0.3,0.3-0.5,0.6-0.7,0.9c-0.2,0.4-0.2,0.7-0.2,1.2v0.9
		H198.9z"/>
</g>
<g class="st6">
	<path class="st8" d="M79.1,46.3c-0.5,0.5-1,0.7-1.6,0.7c-0.4,0-0.7-0.1-1-0.2c-0.3-0.2-0.6-0.4-0.8-0.6c-0.2-0.3-0.4-0.5-0.5-0.9
		c-0.1-0.3-0.2-0.7-0.2-1.1c0-0.4,0.1-0.7,0.2-1c0.1-0.3,0.3-0.6,0.5-0.9s0.5-0.4,0.8-0.6s0.7-0.2,1-0.2c0.5,0,1,0.1,1.3,0.3
		c0.4,0.2,0.6,0.5,0.8,0.9L79,43.2c-0.1-0.3-0.4-0.5-0.6-0.7c-0.3-0.1-0.5-0.2-0.9-0.2c-0.3,0-0.5,0.1-0.7,0.2
		c-0.2,0.1-0.4,0.3-0.5,0.4c-0.1,0.2-0.3,0.4-0.3,0.6c-0.1,0.2-0.1,0.5-0.1,0.7c0,0.3,0,0.5,0.1,0.8c0.1,0.2,0.2,0.4,0.4,0.6
		s0.3,0.3,0.6,0.4s0.4,0.2,0.7,0.2c0.3,0,0.5-0.1,0.8-0.2s0.5-0.3,0.7-0.6v-0.6h-1.1v-0.6h1.9V47h-0.7V46.3z"/>
	<path class="st8" d="M82.9,43.8c-0.3,0-0.6,0.1-0.9,0.2c-0.3,0.1-0.4,0.3-0.5,0.6V47h-0.8v-4h0.8v0.9c0.1-0.3,0.3-0.5,0.5-0.7
		c0.2-0.2,0.5-0.3,0.7-0.3c0.1,0,0.1,0,0.1,0c0,0,0.1,0,0.1,0V43.8z"/>
	<path class="st8" d="M84.5,47.1c-0.2,0-0.4,0-0.5-0.1c-0.2-0.1-0.3-0.2-0.4-0.3c-0.1-0.1-0.2-0.2-0.3-0.4c-0.1-0.2-0.1-0.3-0.1-0.5
		c0-0.2,0-0.4,0.1-0.5c0.1-0.2,0.2-0.3,0.3-0.4c0.1-0.1,0.3-0.2,0.5-0.3c0.2-0.1,0.4-0.1,0.7-0.1c0.2,0,0.4,0,0.6,0
		c0.2,0,0.3,0.1,0.5,0.1v-0.3c0-0.3-0.1-0.5-0.3-0.7c-0.2-0.2-0.4-0.2-0.7-0.2c-0.2,0-0.4,0-0.6,0.1c-0.2,0.1-0.4,0.2-0.6,0.3
		l-0.3-0.5c0.5-0.3,1-0.5,1.6-0.5c0.5,0,1,0.1,1.3,0.4s0.5,0.7,0.5,1.2V46c0,0.2,0.1,0.3,0.2,0.3V47c-0.1,0-0.2,0-0.2,0
		c-0.1,0-0.1,0-0.2,0c-0.2,0-0.3,0-0.4-0.1s-0.1-0.2-0.2-0.3l0-0.3c-0.2,0.2-0.4,0.4-0.7,0.5C85.1,47,84.8,47.1,84.5,47.1z
		 M84.7,46.5c0.2,0,0.4,0,0.6-0.1c0.2-0.1,0.3-0.2,0.4-0.3c0.1-0.1,0.2-0.2,0.2-0.3v-0.5c-0.1-0.1-0.3-0.1-0.5-0.1s-0.3,0-0.5,0
		c-0.3,0-0.5,0.1-0.7,0.2C84,45.4,84,45.6,84,45.8c0,0.2,0.1,0.4,0.2,0.5C84.3,46.4,84.5,46.5,84.7,46.5z"/>
	<path class="st8" d="M90,47.1c-0.3,0-0.6-0.1-0.8-0.2c-0.2-0.2-0.4-0.4-0.6-0.6v2.4h-0.8V43h0.7v0.7c0.2-0.2,0.3-0.4,0.6-0.6
		c0.2-0.1,0.5-0.2,0.8-0.2c0.3,0,0.5,0.1,0.8,0.2c0.2,0.1,0.4,0.3,0.6,0.5c0.2,0.2,0.3,0.4,0.4,0.7c0.1,0.2,0.1,0.5,0.1,0.8
		c0,0.3,0,0.6-0.1,0.8c-0.1,0.3-0.2,0.5-0.4,0.7c-0.2,0.2-0.3,0.3-0.6,0.4S90.3,47.1,90,47.1z M89.7,46.4c0.2,0,0.3,0,0.5-0.1
		c0.1-0.1,0.3-0.2,0.4-0.3s0.2-0.3,0.2-0.4c0.1-0.2,0.1-0.3,0.1-0.5c0-0.2,0-0.4-0.1-0.5c-0.1-0.2-0.1-0.3-0.3-0.4
		c-0.1-0.1-0.2-0.2-0.4-0.3c-0.2-0.1-0.3-0.1-0.5-0.1c-0.1,0-0.2,0-0.3,0.1c-0.1,0-0.2,0.1-0.3,0.2c-0.1,0.1-0.2,0.2-0.3,0.2
		s-0.1,0.2-0.2,0.3v1c0.1,0.1,0.1,0.2,0.2,0.3c0.1,0.1,0.2,0.2,0.3,0.3c0.1,0.1,0.2,0.1,0.3,0.2C89.5,46.4,89.6,46.4,89.7,46.4z"/>
	<path class="st8" d="M96.1,47h-0.8v-2.2c0-0.4-0.1-0.6-0.2-0.8c-0.1-0.2-0.3-0.3-0.6-0.3c-0.1,0-0.2,0-0.4,0.1
		c-0.1,0-0.2,0.1-0.3,0.2c-0.1,0.1-0.2,0.2-0.3,0.3c-0.1,0.1-0.1,0.2-0.2,0.4V47h-0.8v-5.6h0.8v2.4c0.2-0.3,0.4-0.5,0.6-0.6
		c0.3-0.2,0.5-0.2,0.9-0.2c0.2,0,0.5,0,0.6,0.1c0.2,0.1,0.3,0.2,0.4,0.4c0.1,0.1,0.2,0.3,0.2,0.5s0.1,0.4,0.1,0.6V47z"/>
	<path class="st8" d="M97.1,42.4v-0.9h0.8v0.9H97.1z M97.1,47v-4h0.8v4H97.1z"/>
	<path class="st8" d="M100.4,47.1c-0.3,0-0.6-0.1-1-0.2c-0.3-0.1-0.6-0.3-0.8-0.4l0.3-0.5c0.2,0.2,0.5,0.3,0.7,0.4
		c0.2,0.1,0.5,0.1,0.7,0.1c0.2,0,0.4,0,0.6-0.1c0.1-0.1,0.2-0.2,0.2-0.4c0-0.2-0.1-0.3-0.2-0.4s-0.4-0.2-0.8-0.3
		c-0.2-0.1-0.5-0.1-0.6-0.2s-0.3-0.1-0.4-0.2c-0.1-0.1-0.2-0.2-0.2-0.3s-0.1-0.2-0.1-0.4c0-0.2,0-0.4,0.1-0.5s0.2-0.3,0.3-0.4
		s0.3-0.2,0.5-0.2c0.2-0.1,0.4-0.1,0.6-0.1c0.3,0,0.6,0,0.8,0.1c0.3,0.1,0.5,0.2,0.7,0.4l-0.4,0.5c-0.4-0.3-0.8-0.4-1.2-0.4
		c-0.2,0-0.4,0-0.5,0.1c-0.1,0.1-0.2,0.2-0.2,0.4c0,0.1,0,0.2,0,0.2c0,0.1,0.1,0.1,0.1,0.1c0.1,0,0.2,0.1,0.3,0.1s0.2,0.1,0.4,0.1
		c0.3,0.1,0.5,0.1,0.7,0.2c0.2,0.1,0.4,0.1,0.5,0.2s0.2,0.2,0.3,0.3s0.1,0.3,0.1,0.4c0,0.4-0.1,0.7-0.4,0.9
		C101.3,47,100.9,47.1,100.4,47.1z"/>
	<path class="st8" d="M104.9,46.8c-0.1,0.1-0.3,0.1-0.4,0.2c-0.2,0.1-0.4,0.1-0.6,0.1c-0.1,0-0.3,0-0.4-0.1c-0.1,0-0.2-0.1-0.3-0.2
		s-0.2-0.2-0.2-0.3s-0.1-0.3-0.1-0.4v-2.5h-0.5V43h0.5v-1.3h0.8V43h0.9v0.6h-0.9v2.2c0,0.1,0.1,0.2,0.1,0.3c0.1,0.1,0.2,0.1,0.3,0.1
		c0.1,0,0.2,0,0.3-0.1s0.2-0.1,0.2-0.1L104.9,46.8z"/>
	<path class="st8" d="M107.2,47.1c-0.3,0-0.6-0.1-0.8-0.2c-0.3-0.1-0.5-0.3-0.7-0.4c-0.2-0.2-0.3-0.4-0.4-0.7
		c-0.1-0.2-0.1-0.5-0.1-0.8s0-0.5,0.1-0.8c0.1-0.3,0.2-0.5,0.4-0.7c0.2-0.2,0.4-0.3,0.7-0.4c0.3-0.1,0.5-0.2,0.9-0.2
		c0.3,0,0.6,0.1,0.8,0.2c0.3,0.1,0.5,0.3,0.6,0.4s0.3,0.4,0.4,0.6c0.1,0.2,0.1,0.5,0.1,0.8c0,0.1,0,0.1,0,0.2c0,0.1,0,0.1,0,0.1H106
		c0,0.2,0.1,0.3,0.1,0.5s0.2,0.3,0.3,0.4c0.1,0.1,0.2,0.2,0.4,0.2c0.1,0.1,0.3,0.1,0.4,0.1c0.1,0,0.2,0,0.3,0c0.1,0,0.2-0.1,0.3-0.1
		c0.1-0.1,0.2-0.1,0.2-0.2s0.1-0.2,0.2-0.3l0.7,0.2c-0.1,0.3-0.4,0.5-0.7,0.7S107.6,47.1,107.2,47.1z M108.4,44.7
		c0-0.2-0.1-0.3-0.1-0.5c-0.1-0.1-0.2-0.3-0.3-0.4c-0.1-0.1-0.2-0.2-0.4-0.2c-0.1-0.1-0.3-0.1-0.5-0.1c-0.2,0-0.3,0-0.4,0.1
		c-0.1,0.1-0.3,0.1-0.4,0.2c-0.1,0.1-0.2,0.2-0.3,0.4c-0.1,0.1-0.1,0.3-0.1,0.5H108.4z"/>
	<path class="st8" d="M116.6,43h0.8l-1.7,4H115l-0.7-1.9l-0.7,1.9h-0.7l-1.7-4h0.8l1.3,3.2l0.6-1.5l-0.7-1.7h0.7l0.5,1.2l0.5-1.2
		h0.7l-0.7,1.7l0.6,1.5L116.6,43z"/>
	<path class="st8" d="M119.6,47.1c-0.3,0-0.6-0.1-0.8-0.2s-0.5-0.3-0.7-0.4c-0.2-0.2-0.3-0.4-0.4-0.7c-0.1-0.2-0.1-0.5-0.1-0.8
		s0-0.5,0.1-0.8c0.1-0.3,0.2-0.5,0.4-0.7s0.4-0.3,0.7-0.4c0.3-0.1,0.5-0.2,0.9-0.2c0.3,0,0.6,0.1,0.8,0.2c0.3,0.1,0.5,0.3,0.6,0.4
		s0.3,0.4,0.4,0.6c0.1,0.2,0.1,0.5,0.1,0.8c0,0.1,0,0.1,0,0.2c0,0.1,0,0.1,0,0.1h-3.2c0,0.2,0.1,0.3,0.1,0.5
		c0.1,0.1,0.2,0.3,0.3,0.4c0.1,0.1,0.2,0.2,0.4,0.2s0.3,0.1,0.4,0.1c0.1,0,0.2,0,0.3,0c0.1,0,0.2-0.1,0.3-0.1
		c0.1-0.1,0.2-0.1,0.2-0.2s0.1-0.2,0.2-0.3l0.7,0.2c-0.1,0.3-0.4,0.5-0.7,0.7S120,47.1,119.6,47.1z M120.8,44.7
		c0-0.2-0.1-0.3-0.1-0.5c-0.1-0.1-0.2-0.3-0.3-0.4c-0.1-0.1-0.2-0.2-0.4-0.2c-0.1-0.1-0.3-0.1-0.5-0.1c-0.2,0-0.3,0-0.4,0.1
		c-0.1,0.1-0.3,0.1-0.4,0.2c-0.1,0.1-0.2,0.2-0.3,0.4c-0.1,0.1-0.1,0.3-0.1,0.5H120.8z"/>
	<path class="st8" d="M124.5,47.1c-0.3,0-0.6-0.1-0.8-0.2c-0.2-0.1-0.4-0.3-0.6-0.6V47h-0.7v-5.6h0.8v2.3c0.2-0.3,0.4-0.5,0.6-0.6
		s0.5-0.2,0.8-0.2c0.3,0,0.5,0.1,0.7,0.2c0.2,0.1,0.4,0.3,0.6,0.5c0.2,0.2,0.3,0.4,0.4,0.7c0.1,0.3,0.1,0.5,0.1,0.8
		c0,0.3,0,0.6-0.1,0.8c-0.1,0.2-0.2,0.5-0.4,0.7c-0.2,0.2-0.4,0.3-0.6,0.4C125,47,124.7,47.1,124.5,47.1z M124.3,46.4
		c0.2,0,0.4,0,0.5-0.1c0.2-0.1,0.3-0.2,0.4-0.3s0.2-0.3,0.3-0.4c0.1-0.2,0.1-0.3,0.1-0.5s0-0.3-0.1-0.5s-0.1-0.3-0.2-0.4
		c-0.1-0.1-0.2-0.2-0.4-0.3c-0.1-0.1-0.3-0.1-0.5-0.1c-0.3,0-0.5,0.1-0.7,0.3c-0.2,0.2-0.4,0.4-0.5,0.6v1.1c0,0.1,0.1,0.2,0.2,0.3
		c0.1,0.1,0.2,0.2,0.3,0.2s0.2,0.1,0.3,0.2C124,46.4,124.1,46.4,124.3,46.4z"/>
	<path class="st8" d="M130.6,47.1c-0.3,0-0.5-0.1-0.7-0.2s-0.4-0.3-0.6-0.4c-0.2-0.2-0.3-0.4-0.4-0.7c-0.1-0.3-0.1-0.5-0.1-0.8
		c0-0.3,0-0.5,0.1-0.8c0.1-0.2,0.2-0.5,0.4-0.7c0.2-0.2,0.3-0.3,0.6-0.4c0.2-0.1,0.5-0.2,0.7-0.2c0.3,0,0.6,0.1,0.8,0.2
		c0.2,0.2,0.4,0.4,0.6,0.6v-2.3h0.8V46c0,0.1,0,0.2,0,0.2c0,0,0.1,0.1,0.2,0.1V47c-0.1,0-0.2,0-0.2,0c-0.1,0-0.1,0-0.1,0
		c-0.2,0-0.3,0-0.4-0.1c-0.1-0.1-0.2-0.2-0.2-0.3l0-0.3c-0.1,0.2-0.3,0.4-0.6,0.6C131.2,47,130.9,47.1,130.6,47.1z M130.8,46.4
		c0.1,0,0.2,0,0.4-0.1c0.1,0,0.2-0.1,0.3-0.2c0.1-0.1,0.2-0.2,0.3-0.3c0.1-0.1,0.1-0.2,0.2-0.3v-1c0-0.1-0.1-0.2-0.2-0.4
		s-0.2-0.2-0.3-0.3s-0.2-0.1-0.3-0.2c-0.1,0-0.2-0.1-0.4-0.1c-0.2,0-0.3,0-0.5,0.1s-0.3,0.2-0.4,0.3c-0.1,0.1-0.2,0.3-0.2,0.4
		c-0.1,0.2-0.1,0.3-0.1,0.5c0,0.2,0,0.4,0.1,0.5c0.1,0.2,0.2,0.3,0.3,0.4c0.1,0.1,0.2,0.2,0.4,0.3C130.5,46.3,130.7,46.4,130.8,46.4
		z"/>
	<path class="st8" d="M135.7,47.1c-0.3,0-0.6-0.1-0.8-0.2s-0.5-0.3-0.7-0.4c-0.2-0.2-0.3-0.4-0.4-0.7c-0.1-0.2-0.1-0.5-0.1-0.8
		s0-0.5,0.1-0.8c0.1-0.3,0.2-0.5,0.4-0.7s0.4-0.3,0.7-0.4c0.3-0.1,0.5-0.2,0.9-0.2c0.3,0,0.6,0.1,0.8,0.2c0.3,0.1,0.5,0.3,0.6,0.4
		s0.3,0.4,0.4,0.6c0.1,0.2,0.1,0.5,0.1,0.8c0,0.1,0,0.1,0,0.2c0,0.1,0,0.1,0,0.1h-3.2c0,0.2,0.1,0.3,0.1,0.5
		c0.1,0.1,0.2,0.3,0.3,0.4c0.1,0.1,0.2,0.2,0.4,0.2s0.3,0.1,0.4,0.1c0.1,0,0.2,0,0.3,0c0.1,0,0.2-0.1,0.3-0.1
		c0.1-0.1,0.2-0.1,0.2-0.2s0.1-0.2,0.2-0.3l0.7,0.2c-0.1,0.3-0.4,0.5-0.7,0.7S136.1,47.1,135.7,47.1z M136.9,44.7
		c0-0.2-0.1-0.3-0.1-0.5c-0.1-0.1-0.2-0.3-0.3-0.4c-0.1-0.1-0.2-0.2-0.4-0.2c-0.1-0.1-0.3-0.1-0.5-0.1c-0.2,0-0.3,0-0.4,0.1
		c-0.1,0.1-0.3,0.1-0.4,0.2c-0.1,0.1-0.2,0.2-0.3,0.4c-0.1,0.1-0.1,0.3-0.1,0.5H136.9z"/>
	<path class="st8" d="M139.8,47.1c-0.3,0-0.6-0.1-1-0.2c-0.3-0.1-0.6-0.3-0.8-0.4l0.3-0.5c0.2,0.2,0.5,0.3,0.7,0.4
		c0.2,0.1,0.5,0.1,0.7,0.1c0.2,0,0.4,0,0.6-0.1c0.1-0.1,0.2-0.2,0.2-0.4c0-0.2-0.1-0.3-0.2-0.4c-0.2-0.1-0.4-0.2-0.8-0.3
		c-0.2-0.1-0.5-0.1-0.6-0.2c-0.2-0.1-0.3-0.1-0.4-0.2c-0.1-0.1-0.2-0.2-0.2-0.3s-0.1-0.2-0.1-0.4c0-0.2,0-0.4,0.1-0.5
		s0.2-0.3,0.3-0.4c0.1-0.1,0.3-0.2,0.5-0.2c0.2-0.1,0.4-0.1,0.6-0.1c0.3,0,0.6,0,0.8,0.1c0.3,0.1,0.5,0.2,0.7,0.4l-0.4,0.5
		c-0.4-0.3-0.8-0.4-1.2-0.4c-0.2,0-0.4,0-0.5,0.1c-0.1,0.1-0.2,0.2-0.2,0.4c0,0.1,0,0.2,0,0.2c0,0.1,0.1,0.1,0.1,0.1
		s0.2,0.1,0.3,0.1s0.2,0.1,0.4,0.1c0.3,0.1,0.5,0.1,0.7,0.2c0.2,0.1,0.4,0.1,0.5,0.2s0.2,0.2,0.3,0.3c0.1,0.1,0.1,0.3,0.1,0.4
		c0,0.4-0.1,0.7-0.4,0.9C140.7,47,140.3,47.1,139.8,47.1z"/>
	<path class="st8" d="M142.2,42.4v-0.9h0.8v0.9H142.2z M142.2,47v-4h0.8v4H142.2z"/>
	<path class="st8" d="M145.6,47.1c-0.3,0-0.5-0.1-0.7-0.2s-0.4-0.3-0.6-0.4c-0.2-0.2-0.3-0.4-0.4-0.6c-0.1-0.2-0.1-0.5-0.1-0.8
		c0-0.3,0-0.6,0.1-0.8c0.1-0.3,0.2-0.5,0.4-0.7c0.2-0.2,0.4-0.3,0.6-0.4c0.2-0.1,0.5-0.2,0.8-0.2c0.3,0,0.6,0.1,0.8,0.2
		s0.4,0.4,0.6,0.6V43h0.7v3.9c0,0.3-0.1,0.5-0.2,0.8c-0.1,0.2-0.3,0.4-0.4,0.6c-0.2,0.2-0.4,0.3-0.7,0.4c-0.3,0.1-0.5,0.1-0.8,0.1
		c-0.4,0-0.8-0.1-1.1-0.2c-0.3-0.2-0.5-0.4-0.7-0.6l0.5-0.4c0.2,0.2,0.3,0.4,0.6,0.5c0.2,0.1,0.5,0.2,0.8,0.2c0.2,0,0.3,0,0.5-0.1
		c0.2,0,0.3-0.1,0.4-0.2c0.1-0.1,0.2-0.2,0.3-0.4c0.1-0.1,0.1-0.3,0.1-0.5v-0.6c-0.1,0.2-0.3,0.4-0.6,0.6S145.9,47.1,145.6,47.1z
		 M145.9,46.4c0.1,0,0.2,0,0.4-0.1c0.1,0,0.2-0.1,0.3-0.2c0.1-0.1,0.2-0.2,0.3-0.3c0.1-0.1,0.1-0.2,0.2-0.3v-1
		c-0.1-0.1-0.1-0.2-0.2-0.3s-0.2-0.2-0.3-0.3s-0.2-0.1-0.3-0.2c-0.1,0-0.2-0.1-0.4-0.1c-0.2,0-0.3,0-0.5,0.1
		c-0.1,0.1-0.3,0.2-0.4,0.3s-0.2,0.3-0.2,0.4c-0.1,0.2-0.1,0.3-0.1,0.5c0,0.2,0,0.4,0.1,0.5c0.1,0.2,0.2,0.3,0.3,0.4
		s0.2,0.2,0.4,0.3C145.5,46.3,145.7,46.4,145.9,46.4z"/>
	<path class="st8" d="M152.4,47h-0.8v-2.2c0-0.4-0.1-0.6-0.2-0.8s-0.3-0.3-0.5-0.3c-0.1,0-0.2,0-0.4,0.1c-0.1,0-0.2,0.1-0.3,0.2
		c-0.1,0.1-0.2,0.2-0.3,0.3s-0.1,0.2-0.2,0.4V47h-0.8v-4h0.8v0.8c0.2-0.3,0.4-0.5,0.7-0.6c0.3-0.2,0.6-0.2,1-0.2
		c0.2,0,0.4,0,0.6,0.1c0.2,0.1,0.3,0.2,0.4,0.4c0.1,0.2,0.2,0.3,0.2,0.5s0.1,0.4,0.1,0.6V47z"/>
	<path class="st8" d="M155.2,47.1c-0.3,0-0.6-0.1-0.8-0.2s-0.5-0.3-0.7-0.4c-0.2-0.2-0.3-0.4-0.4-0.7c-0.1-0.2-0.1-0.5-0.1-0.8
		s0-0.5,0.1-0.8c0.1-0.3,0.2-0.5,0.4-0.7s0.4-0.3,0.7-0.4c0.3-0.1,0.5-0.2,0.9-0.2c0.3,0,0.6,0.1,0.8,0.2c0.3,0.1,0.5,0.3,0.6,0.4
		s0.3,0.4,0.4,0.6c0.1,0.2,0.1,0.5,0.1,0.8c0,0.1,0,0.1,0,0.2c0,0.1,0,0.1,0,0.1H154c0,0.2,0.1,0.3,0.1,0.5c0.1,0.1,0.2,0.3,0.3,0.4
		c0.1,0.1,0.2,0.2,0.4,0.2s0.3,0.1,0.4,0.1c0.1,0,0.2,0,0.3,0c0.1,0,0.2-0.1,0.3-0.1c0.1-0.1,0.2-0.1,0.2-0.2s0.1-0.2,0.2-0.3
		l0.7,0.2c-0.1,0.3-0.4,0.5-0.7,0.7S155.6,47.1,155.2,47.1z M156.4,44.7c0-0.2-0.1-0.3-0.1-0.5c-0.1-0.1-0.2-0.3-0.3-0.4
		c-0.1-0.1-0.2-0.2-0.4-0.2c-0.1-0.1-0.3-0.1-0.5-0.1c-0.2,0-0.3,0-0.4,0.1c-0.1,0.1-0.3,0.1-0.4,0.2c-0.1,0.1-0.2,0.2-0.3,0.4
		c-0.1,0.1-0.1,0.3-0.1,0.5H156.4z"/>
	<path class="st8" d="M160.1,43.8c-0.3,0-0.6,0.1-0.9,0.2c-0.3,0.1-0.4,0.3-0.5,0.6V47h-0.8v-4h0.8v0.9c0.1-0.3,0.3-0.5,0.5-0.7
		s0.5-0.3,0.7-0.3c0.1,0,0.1,0,0.1,0s0.1,0,0.1,0V43.8z"/>
	<path class="st8" d="M162.4,42.4v-0.9h0.8v0.9H162.4z M162.4,47v-4h0.8v4H162.4z"/>
	<path class="st8" d="M164.3,41.5h0.8v4.4c0,0.1,0,0.3,0.1,0.3s0.2,0.1,0.3,0.1c0.1,0,0.1,0,0.2,0c0.1,0,0.1,0,0.2-0.1l0.1,0.7
		c-0.1,0.1-0.3,0.1-0.4,0.1c-0.2,0-0.3,0-0.5,0c-0.3,0-0.5-0.1-0.7-0.2c-0.2-0.2-0.2-0.4-0.2-0.7V41.5z"/>
	<path class="st8" d="M166.6,41.5h0.8v4.4c0,0.1,0,0.3,0.1,0.3s0.2,0.1,0.3,0.1c0.1,0,0.1,0,0.2,0c0.1,0,0.1,0,0.2-0.1l0.1,0.7
		c-0.1,0.1-0.3,0.1-0.4,0.1c-0.2,0-0.3,0-0.5,0c-0.3,0-0.5-0.1-0.7-0.2c-0.2-0.2-0.2-0.4-0.2-0.7V41.5z"/>
	<path class="st8" d="M170.1,47.1c-0.4,0-0.7-0.1-0.9-0.4c-0.2-0.3-0.3-0.7-0.3-1.2V43h0.8v2.3c0,0.7,0.3,1.1,0.8,1.1
		c0.2,0,0.5-0.1,0.7-0.2c0.2-0.1,0.4-0.4,0.5-0.6V43h0.8v3c0,0.1,0,0.2,0,0.2c0,0,0.1,0.1,0.2,0.1V47c-0.1,0-0.2,0-0.2,0
		s-0.1,0-0.2,0c-0.2,0-0.3,0-0.4-0.1c-0.1-0.1-0.2-0.2-0.2-0.3l0-0.4c-0.2,0.3-0.4,0.5-0.7,0.7C170.7,47,170.4,47.1,170.1,47.1z"/>
	<path class="st8" d="M175,47.1c-0.3,0-0.6-0.1-1-0.2c-0.3-0.1-0.6-0.3-0.8-0.4l0.3-0.5c0.2,0.2,0.5,0.3,0.7,0.4
		c0.2,0.1,0.5,0.1,0.7,0.1c0.2,0,0.4,0,0.6-0.1c0.1-0.1,0.2-0.2,0.2-0.4c0-0.2-0.1-0.3-0.2-0.4c-0.2-0.1-0.4-0.2-0.8-0.3
		c-0.2-0.1-0.5-0.1-0.6-0.2c-0.2-0.1-0.3-0.1-0.4-0.2c-0.1-0.1-0.2-0.2-0.2-0.3s-0.1-0.2-0.1-0.4c0-0.2,0-0.4,0.1-0.5
		s0.2-0.3,0.3-0.4c0.1-0.1,0.3-0.2,0.5-0.2c0.2-0.1,0.4-0.1,0.6-0.1c0.3,0,0.6,0,0.8,0.1c0.3,0.1,0.5,0.2,0.7,0.4l-0.4,0.5
		c-0.4-0.3-0.8-0.4-1.2-0.4c-0.2,0-0.4,0-0.5,0.1c-0.1,0.1-0.2,0.2-0.2,0.4c0,0.1,0,0.2,0,0.2c0,0.1,0.1,0.1,0.1,0.1
		s0.2,0.1,0.3,0.1s0.2,0.1,0.4,0.1c0.3,0.1,0.5,0.1,0.7,0.2c0.2,0.1,0.4,0.1,0.5,0.2s0.2,0.2,0.3,0.3c0.1,0.1,0.1,0.3,0.1,0.4
		c0,0.4-0.1,0.7-0.4,0.9C175.8,47,175.4,47.1,175,47.1z"/>
	<path class="st8" d="M179.5,46.8c-0.1,0.1-0.3,0.1-0.4,0.2c-0.2,0.1-0.4,0.1-0.6,0.1c-0.1,0-0.3,0-0.4-0.1c-0.1,0-0.2-0.1-0.3-0.2
		s-0.2-0.2-0.2-0.3s-0.1-0.3-0.1-0.4v-2.5H177V43h0.5v-1.3h0.8V43h0.9v0.6h-0.9v2.2c0,0.1,0.1,0.2,0.1,0.3c0.1,0.1,0.2,0.1,0.3,0.1
		s0.2,0,0.3-0.1c0.1,0,0.2-0.1,0.2-0.1L179.5,46.8z"/>
	<path class="st8" d="M182.3,43.8c-0.3,0-0.6,0.1-0.9,0.2c-0.3,0.1-0.4,0.3-0.5,0.6V47h-0.8v-4h0.8v0.9c0.1-0.3,0.3-0.5,0.5-0.7
		s0.5-0.3,0.7-0.3c0.1,0,0.1,0,0.1,0s0.1,0,0.1,0V43.8z"/>
	<path class="st8" d="M183.9,47.1c-0.2,0-0.4,0-0.5-0.1c-0.2-0.1-0.3-0.2-0.4-0.3c-0.1-0.1-0.2-0.2-0.3-0.4
		c-0.1-0.2-0.1-0.3-0.1-0.5c0-0.2,0-0.4,0.1-0.5c0.1-0.2,0.2-0.3,0.3-0.4c0.2-0.1,0.3-0.2,0.5-0.3c0.2-0.1,0.4-0.1,0.7-0.1
		c0.2,0,0.4,0,0.6,0c0.2,0,0.3,0.1,0.5,0.1v-0.3c0-0.3-0.1-0.5-0.3-0.7c-0.2-0.2-0.4-0.2-0.7-0.2c-0.2,0-0.4,0-0.6,0.1
		c-0.2,0.1-0.4,0.2-0.6,0.3l-0.3-0.5c0.5-0.3,1-0.5,1.6-0.5c0.5,0,1,0.1,1.3,0.4s0.5,0.7,0.5,1.2V46c0,0.2,0.1,0.3,0.2,0.3V47
		c-0.1,0-0.2,0-0.2,0s-0.1,0-0.2,0c-0.2,0-0.3,0-0.4-0.1s-0.1-0.2-0.2-0.3l0-0.3c-0.2,0.2-0.4,0.4-0.7,0.5
		C184.5,47,184.2,47.1,183.9,47.1z M184.2,46.5c0.2,0,0.4,0,0.6-0.1c0.2-0.1,0.3-0.2,0.4-0.3c0.1-0.1,0.2-0.2,0.2-0.3v-0.5
		c-0.1-0.1-0.3-0.1-0.5-0.1c-0.2,0-0.3,0-0.5,0c-0.3,0-0.5,0.1-0.7,0.2c-0.2,0.1-0.3,0.3-0.3,0.5c0,0.2,0.1,0.4,0.2,0.5
		S183.9,46.5,184.2,46.5z"/>
	<path class="st8" d="M189.4,46.8c-0.1,0.1-0.3,0.1-0.4,0.2c-0.2,0.1-0.4,0.1-0.6,0.1c-0.1,0-0.3,0-0.4-0.1c-0.1,0-0.2-0.1-0.3-0.2
		s-0.2-0.2-0.2-0.3s-0.1-0.3-0.1-0.4v-2.5h-0.5V43h0.5v-1.3h0.8V43h0.9v0.6h-0.9v2.2c0,0.1,0.1,0.2,0.1,0.3c0.1,0.1,0.2,0.1,0.3,0.1
		s0.2,0,0.3-0.1c0.1,0,0.2-0.1,0.2-0.1L189.4,46.8z"/>
	<path class="st8" d="M192.2,43.8c-0.3,0-0.6,0.1-0.9,0.2c-0.3,0.1-0.4,0.3-0.5,0.6V47h-0.8v-4h0.8v0.9c0.1-0.3,0.3-0.5,0.5-0.7
		s0.5-0.3,0.7-0.3c0.1,0,0.1,0,0.1,0s0.1,0,0.1,0V43.8z"/>
	<path class="st8" d="M192.8,42.4v-0.9h0.8v0.9H192.8z M192.8,47v-4h0.8v4H192.8z"/>
	<path class="st8" d="M194.4,45c0-0.3,0-0.5,0.1-0.8s0.2-0.5,0.4-0.7c0.2-0.2,0.4-0.3,0.7-0.4c0.3-0.1,0.5-0.2,0.9-0.2
		c0.4,0,0.8,0.1,1.1,0.3c0.3,0.2,0.5,0.4,0.7,0.7l-0.8,0.3c-0.1-0.2-0.2-0.3-0.4-0.4c-0.2-0.1-0.3-0.1-0.5-0.1c-0.2,0-0.3,0-0.5,0.1
		c-0.1,0.1-0.3,0.2-0.4,0.3c-0.1,0.1-0.2,0.3-0.3,0.4c-0.1,0.2-0.1,0.3-0.1,0.5c0,0.2,0,0.4,0.1,0.5s0.1,0.3,0.3,0.4
		c0.1,0.1,0.2,0.2,0.4,0.3c0.1,0.1,0.3,0.1,0.5,0.1c0.1,0,0.2,0,0.3,0c0.1,0,0.2-0.1,0.3-0.1c0.1-0.1,0.2-0.1,0.2-0.2
		c0.1-0.1,0.1-0.1,0.1-0.2l0.8,0.2c-0.1,0.3-0.4,0.5-0.7,0.7s-0.7,0.3-1.1,0.3c-0.3,0-0.6-0.1-0.8-0.2c-0.3-0.1-0.5-0.3-0.7-0.5
		s-0.3-0.4-0.4-0.7C194.4,45.6,194.4,45.3,194.4,45z"/>
	<path class="st8" d="M200.7,47.1c-0.3,0-0.6-0.1-0.8-0.2s-0.5-0.3-0.7-0.4c-0.2-0.2-0.3-0.4-0.4-0.7c-0.1-0.2-0.1-0.5-0.1-0.8
		s0-0.5,0.1-0.8c0.1-0.3,0.2-0.5,0.4-0.7s0.4-0.3,0.7-0.4c0.3-0.1,0.5-0.2,0.9-0.2c0.3,0,0.6,0.1,0.8,0.2c0.3,0.1,0.5,0.3,0.6,0.4
		s0.3,0.4,0.4,0.6c0.1,0.2,0.1,0.5,0.1,0.8c0,0.1,0,0.1,0,0.2c0,0.1,0,0.1,0,0.1h-3.2c0,0.2,0.1,0.3,0.1,0.5
		c0.1,0.1,0.2,0.3,0.3,0.4c0.1,0.1,0.2,0.2,0.4,0.2s0.3,0.1,0.4,0.1c0.1,0,0.2,0,0.3,0c0.1,0,0.2-0.1,0.3-0.1
		c0.1-0.1,0.2-0.1,0.2-0.2s0.1-0.2,0.2-0.3l0.7,0.2c-0.1,0.3-0.4,0.5-0.7,0.7S201.1,47.1,200.7,47.1z M201.9,44.7
		c0-0.2-0.1-0.3-0.1-0.5c-0.1-0.1-0.2-0.3-0.3-0.4c-0.1-0.1-0.2-0.2-0.4-0.2c-0.1-0.1-0.3-0.1-0.5-0.1c-0.2,0-0.3,0-0.4,0.1
		c-0.1,0.1-0.3,0.1-0.4,0.2c-0.1,0.1-0.2,0.2-0.3,0.4c-0.1,0.1-0.1,0.3-0.1,0.5H201.9z"/>
</g>
</svg>
