<svg id="Calque_1" data-name="Calque 1" xmlns="http://www.w3.org/2000/svg" viewBox="0 0 189.37 176.74"><defs><style>.cls-1,.cls-2,.cls-3,.cls-7,.cls-8{fill:none;stroke-linecap:round;stroke-linejoin:round;}.cls-1{stroke:#2f7570;stroke-width:11.1px;}.cls-2,.cls-8{stroke:#3b4c43;}.cls-2{stroke-width:11.54px;}.cls-3,.cls-7{stroke:#c59d58;}.cls-3{stroke-width:10.6px;}.cls-4{fill:#e4d6a1;}.cls-5{fill:#2f7570;}.cls-6{fill:#3b4c43;}.cls-7{stroke-width:4px;}.cls-8{stroke-width:2px;}.cls-9{fill:#3b4c44;}</style></defs><title>logoPlan de travail 1 copie 2</title><line class="cls-1" x1="68.41" y1="153.42" x2="6.99" y2="81.3"/><line class="cls-2" x1="113.22" y1="169.35" x2="6.99" y2="44.61"/><rect class="cls-3" x="45.48" y="39.68" width="123.18" height="85.14" transform="translate(-0.34 0.45) rotate(-0.24)"/><path class="cls-4" d="M159.52,42.32l-105.27.44A4.36,4.36,0,0,0,49.75,47L50,117.59a4.37,4.37,0,0,0,4.54,4.18l105.27-.44a4.36,4.36,0,0,0,4.5-4.21l-.29-70.62A4.37,4.37,0,0,0,159.52,42.32Z"/><rect class="cls-5" x="110.07" y="63.18" width="49.92" height="53.33" rx="4.36" ry="4.36"/><path class="cls-5" d="M102.85,121.84V99.64a4.88,4.88,0,0,0-5-4.72H60.28a4.88,4.88,0,0,0-5,4.72V122Z"/><circle class="cls-6" cx="59.95" cy="49.08" r="1.72"/><circle class="cls-6" cx="68.26" cy="49.08" r="1.72"/><circle class="cls-6" cx="76.56" cy="49.08" r="1.72"/><line class="cls-7" x1="50.22" y1="56.26" x2="126.21" y2="56.26"/><line class="cls-8" x1="101.92" y1="65.26" x2="56.09" y2="65.26"/><line class="cls-8" x1="101.92" y1="71.01" x2="56.09" y2="71.01"/><line class="cls-8" x1="101.92" y1="76.77" x2="56.09" y2="76.77"/><line class="cls-8" x1="101.92" y1="82.53" x2="56.09" y2="82.53"/><line class="cls-8" x1="92.98" y1="88.29" x2="59.09" y2="88.29"/><path class="cls-9" d="M178.05,2.88l-11,11-4.55-7.87a1.84,1.84,0,0,0-3.32.24l-14,35.11a1.85,1.85,0,0,0,2.41,2.41l35.12-14a1.85,1.85,0,0,0,.24-3.32L175,21.93l11-11a1.86,1.86,0,0,0,0-2.62l-5.39-5.39A1.86,1.86,0,0,0,178.05,2.88Z"/><path class="cls-6" d="M136.66,49.66a1.85,1.85,0,0,0,2.62,2.62l4.12-4.12a1.82,1.82,0,0,0,.55-1.31,1.86,1.86,0,0,0-3.17-1.32Z"/><path class="cls-5" d="M149.48,48.26a1.85,1.85,0,0,0-1.85,1.85v5.83a1.86,1.86,0,1,0,3.71,0V50.11A1.85,1.85,0,0,0,149.48,48.26Z"/><path class="cls-6" d="M155.21,49l4.12,4.12A1.85,1.85,0,0,0,162,50.51l-4.12-4.12A1.85,1.85,0,0,0,155.21,49Z"/><path class="cls-5" d="M140.68,39.46a1.86,1.86,0,0,0-1.86-1.86H133a1.86,1.86,0,0,0,0,3.71h5.83A1.85,1.85,0,0,0,140.68,39.46Z"/><path class="cls-6" d="M143.09,32.42a1.86,1.86,0,0,0-.54-1.31L138.43,27a1.86,1.86,0,1,0-2.63,2.62l4.13,4.12a1.85,1.85,0,0,0,3.16-1.31Z"/></svg>